<?xml version="1.0" encoding="utf-8"?>
<!-- Generator: Adobe Illustrator 16.0.0, SVG Export Plug-In . SVG Version: 6.00 Build 0)  -->
<!DOCTYPE svg PUBLIC "-//W3C//DTD SVG 1.1//EN" "http://www.w3.org/Graphics/SVG/1.1/DTD/svg11.dtd">
<svg version="1.1" id="Layer_1" xmlns="http://www.w3.org/2000/svg" xmlns:xlink="http://www.w3.org/1999/xlink" x="0px" y="0px"
	 width="24px" height="24px" viewBox="0 0 24 24" enable-background="new 0 0 24 24" xml:space="preserve">
<rect fill="none" width="24" height="24"/>
<g>
	<path d="M15.085,9.512l-2.314-1.056l2.314-1.056l1.056-2.313l1.055,2.313l2.313,1.056l-2.313,1.056l-1.055,2.313L15.085,9.512z
		 M3.787,14.071l1.056-2.313l2.313-1.056L4.843,9.646L3.787,7.333L2.731,9.646l-2.314,1.056l2.314,1.056L3.787,14.071z M8.841,8.457
		l1.224-2.707l2.706-1.224l-2.706-1.224L8.841,0.595L7.617,3.302L4.91,4.526L7.617,5.75L8.841,8.457z M2.202,23.416l6.917-6.928
		l4.612,4.61l9.797-11.02l-1.625-1.626l-8.172,9.189l-4.612-4.612l-8.646,8.658L2.202,23.416z"/>
</g>
</svg>
