<?xml version="1.0" encoding="utf-8"?>
<!-- Generator: Adobe Illustrator 16.0.0, SVG Export Plug-In . SVG Version: 6.00 Build 0)  -->
<!DOCTYPE svg PUBLIC "-//W3C//DTD SVG 1.1//EN" "http://www.w3.org/Graphics/SVG/1.1/DTD/svg11.dtd">
<svg version="1.1" id="Layer_1" xmlns="http://www.w3.org/2000/svg" xmlns:xlink="http://www.w3.org/1999/xlink" x="0px" y="0px"
	 width="60px" height="60px" viewBox="0 0 60 60" enable-background="new 0 0 60 60" xml:space="preserve">
<g>
	<path fill-rule="evenodd" clip-rule="evenodd" d="M5.618,27.233c-0.457-1.461-1.071-2.742-1.233-4.077
		c-0.396-3.272,1.338-5.992,4.586-7.415c0.782-0.341,1.078-0.68,0.979-1.588c-0.372-3.391,1.286-6.121,4.34-7.597
		c0.552-0.267,1.096-0.883,1.304-1.46c1.094-3.035,3.691-4.961,6.483-4.672c3.504,0.364,5.718,2.412,5.999,5.908
		c0.209,2.602,0.084,5.229,0.096,7.845c0.001,0.243-0.079,0.487-0.132,0.793c-1.491,0.173-2.678,0.246-3.775-1.22
		c-1.533-2.048-4.72-1.979-6.574-0.178c-2.056,1.998-2.129,4.726-0.18,6.684c1.888,1.896,5.123,2.031,6.703-0.048
		c1.115-1.468,2.312-1.364,3.852-1.214c0,3.573,0,7.083,0,10.78c-1.552,0-3.077-0.007-4.602,0.001
		c-3.818,0.023-5.918,1.902-6.451,5.617c-0.095,0.66-0.492,1.413-0.988,1.86c-2.099,1.892-2.363,4.87-0.499,6.849
		c2.059,2.184,4.848,2.206,6.911,0.055c1.896-1.976,1.781-5.055-0.433-6.79c-0.942-0.739-1.305-1.608-0.836-2.463
		c0.337-0.61,1.31-1.123,2.052-1.209c1.56-0.183,3.157-0.055,4.803-0.055c0.066,0.417,0.152,0.71,0.152,1.002
		c0.008,5.952,0.062,11.904-0.012,17.858c-0.066,5.146-4.382,8.182-8.909,6.367c-2.266-0.907-3.349-2.763-3.858-4.965
		c-1.281-0.117-2.519-0.097-3.687-0.367c-3.743-0.871-6.084-4.526-5.379-8.298c0.136-0.721,0.195-1.227-0.615-1.626
		c-7.031-3.455-6.457-12.869-0.399-16.102C5.442,27.441,5.537,27.309,5.618,27.233z"/>
	<path fill-rule="evenodd" clip-rule="evenodd" d="M32.312,15.063c0-3.41-0.282-6.607,0.081-9.728
		c0.353-3.012,2.917-4.811,6.011-4.925c2.69-0.1,5.204,1.62,6.046,4.356c0.321,1.048,0.852,1.58,1.814,2.016
		c2.817,1.274,4.314,4.14,4.086,7.291c-0.036,0.499,0.319,1.311,0.728,1.515c4.744,2.39,6.072,6.295,3.631,10.957
		c-0.071,0.135-0.11,0.285-0.229,0.597c3.238,1.963,5.264,4.75,5.117,8.73c-0.146,3.969-2.363,6.529-5.843,8.178
		c0.068,0.475,0.126,0.874,0.186,1.271c0.708,4.738-3.004,8.825-7.78,8.479c-0.914-0.068-1.31-0.011-1.605,1.005
		c-0.905,3.103-3.594,4.834-6.671,4.512c-3.324-0.352-5.565-2.553-5.754-5.964c-0.152-2.757-0.033-5.529-0.033-8.531
		c2.102,0,4.139-0.059,6.165,0.049c0.418,0.021,0.838,0.632,1.202,1.02c1.448,1.557,3.515,2.099,5.336,1.365
		c1.809-0.729,3.008-2.509,2.994-4.441c-0.017-1.946-1.348-3.794-3.211-4.455c-1.771-0.624-4.012-0.086-5.14,1.473
		c-0.662,0.916-1.363,1.208-2.435,1.153c-1.575-0.081-3.155-0.022-4.836-0.022c0-7.388,0-14.601,0-22.008
		c1.856,0,3.739-0.086,5.605,0.058c0.487,0.038,1.139,0.718,1.319,1.239c0.282,0.815,0.119,1.598-0.755,2.256
		c-1.708,1.291-2.257,3.49-1.57,5.378c0.593,1.624,2.517,2.997,4.28,3.058c1.948,0.064,3.815-1.168,4.597-3.034
		c0.712-1.7,0.322-3.833-1.168-5.056c-0.92-0.754-1.252-1.56-1.388-2.704c-0.389-3.249-2.55-5.051-5.872-5.083
		C35.584,15.05,33.95,15.063,32.312,15.063z"/>
	<path fill-rule="evenodd" clip-rule="evenodd" d="M22.798,17.353c-0.634,0.446-1.23,1.178-1.913,1.27
		c-1.021,0.139-1.717-0.539-1.687-1.702c0.03-1.167,0.752-1.796,1.777-1.594c0.678,0.134,1.235,0.873,1.846,1.338
		C22.813,16.895,22.805,17.124,22.798,17.353z"/>
	<path fill-rule="evenodd" clip-rule="evenodd" d="M42.885,26.217c-0.012,1.123-0.626,1.719-1.704,1.699
		c-0.992-0.021-1.646-0.605-1.653-1.629c-0.009-1.061,0.596-1.8,1.661-1.804C42.214,24.478,42.895,25.074,42.885,26.217z"/>
	<path fill-rule="evenodd" clip-rule="evenodd" d="M20.97,41.33c-0.667,0.471-1.293,1.238-2.011,1.336
		c-0.888,0.118-1.629-0.522-1.626-1.624c0.002-1.154,0.651-1.83,1.709-1.66c0.684,0.107,1.277,0.782,1.913,1.206
		C20.959,40.835,20.964,41.083,20.97,41.33z"/>
	<path fill-rule="evenodd" clip-rule="evenodd" d="M44.739,43.058c0.039,0.915-0.646,1.498-1.686,1.489
		c-0.956-0.008-1.604-0.57-1.631-1.651c-0.021-1.055,0.465-1.639,1.526-1.682C44.045,41.17,44.705,41.647,44.739,43.058z"/>
</g>
</svg>
