<?xml version="1.0" encoding="utf-8"?>
<!-- Generator: Adobe Illustrator 16.0.0, SVG Export Plug-In . SVG Version: 6.00 Build 0)  -->
<!DOCTYPE svg PUBLIC "-//W3C//DTD SVG 1.1//EN" "http://www.w3.org/Graphics/SVG/1.1/DTD/svg11.dtd">
<svg version="1.1" id="Layer_1" xmlns="http://www.w3.org/2000/svg" xmlns:xlink="http://www.w3.org/1999/xlink" x="0px" y="0px"
	 width="24px" height="24px" viewBox="0 0 24 24" enable-background="new 0 0 24 24" xml:space="preserve">
<path fill="none" d="M0,0h24v24H0V0z"/>
<path d="M22.023,7.059h-3.561c-0.569-0.989-1.354-1.838-2.306-2.483l2.065-2.065l-1.787-1.787l-2.749,2.749
	c-0.583-0.139-1.179-0.215-1.799-0.215c-0.621,0-1.217,0.076-1.787,0.215L7.339,0.724L5.553,2.51l2.053,2.065
	C6.667,5.221,5.882,6.07,5.312,7.059h-3.56v2.534h2.647c-0.063,0.418-0.114,0.836-0.114,1.267v1.267H1.752v2.535h2.534v1.267
	c0,0.431,0.051,0.849,0.114,1.266H1.752v2.535h3.56c1.318,2.268,3.763,3.801,6.576,3.801c2.813,0,5.258-1.533,6.575-3.801h3.561
	v-2.535h-2.648c0.063-0.417,0.114-0.835,0.114-1.266v-1.267h2.534v-2.535h-2.534v-1.267c0-0.431-0.051-0.849-0.114-1.267h2.648
	V7.059z M14.422,17.193H9.354v-2.532h5.068V17.193z M14.422,12.126H9.354V9.592h5.068V12.126z"/>
</svg>
