<?xml version="1.0" encoding="utf-8"?>
<!-- Generator: Adobe Illustrator 16.0.0, SVG Export Plug-In . SVG Version: 6.00 Build 0)  -->
<!DOCTYPE svg PUBLIC "-//W3C//DTD SVG 1.1//EN" "http://www.w3.org/Graphics/SVG/1.1/DTD/svg11.dtd">
<svg version="1.1" id="Layer_1" xmlns="http://www.w3.org/2000/svg" xmlns:xlink="http://www.w3.org/1999/xlink" x="0px" y="0px"
	 width="24px" height="24px" viewBox="0 0 24 24" enable-background="new 0 0 24 24" xml:space="preserve">
<path fill="none" d="M0,0h24v24H0V0z"/>
<path d="M0.257,18.475h2.59v0.648H1.553v1.295h1.295v0.646h-2.59v1.295h3.885v-5.18H0.257V18.475z M1.553,6.82h1.295v-5.18h-2.59
	v1.295h1.295V6.82z M0.257,10.705h2.331l-2.331,2.719v1.167h3.885v-1.296H1.812l2.331-2.719V9.411H0.257V10.705z M5.698,2.936v2.59
	h18.129v-2.59H5.698z M5.698,21.064h18.129v-2.59H5.698V21.064z M5.698,13.295h18.129v-2.59H5.698V13.295z"/>
</svg>
